<svg class="icon icon-instagram" width="48" height="48" viewBox="0 0 16 16" fill="none" xmlns="http://www.w3.org/2000/svg">
<path d="M8.68539 1.33334C9.43539 1.33534 9.81605 1.33934 10.1447 1.34868L10.2741 1.35334C10.4234 1.35868 10.5707 1.36534 10.7487 1.37334C11.4581 1.40668 11.9421 1.51868 12.3667 1.68334C12.8067 1.85268 13.1774 2.08201 13.5481 2.45201C13.8872 2.78517 14.1495 3.18833 14.3167 3.63334C14.4814 4.05801 14.5934 4.54201 14.6267 5.25201C14.6347 5.42934 14.6414 5.57668 14.6467 5.72668L14.6507 5.85601C14.6607 6.18401 14.6647 6.56468 14.6661 7.31468L14.6667 7.81201V8.68534C14.6683 9.17161 14.6632 9.65788 14.6514 10.144L14.6474 10.2733C14.6421 10.4233 14.6354 10.5707 14.6274 10.748C14.5941 11.458 14.4807 11.9413 14.3167 12.3667C14.1495 12.8117 13.8872 13.2149 13.5481 13.548C13.2149 13.8871 12.8117 14.1495 12.3667 14.3167C11.9421 14.4813 11.4581 14.5933 10.7487 14.6267L10.2741 14.6467L10.1447 14.6507C9.81605 14.66 9.43539 14.6647 8.68539 14.666L8.18805 14.6667H7.31539C6.82889 14.6684 6.3424 14.6633 5.85605 14.6513L5.72672 14.6473C5.56846 14.6414 5.41024 14.6345 5.25205 14.6267C4.54272 14.5933 4.05872 14.4813 3.63339 14.3167C3.18861 14.1494 2.78568 13.8871 2.45272 13.548C2.11335 13.2149 1.85079 12.8118 1.68339 12.3667C1.51872 11.942 1.40672 11.458 1.37339 10.748L1.35339 10.2733L1.35005 10.144C1.33776 9.65789 1.33221 9.17162 1.33339 8.68534V7.31468C1.33154 6.82841 1.33643 6.34214 1.34805 5.85601L1.35272 5.72668C1.35805 5.57668 1.36472 5.42934 1.37272 5.25201C1.40605 4.54201 1.51805 4.05868 1.68272 3.63334C1.85052 3.18814 2.11354 2.78497 2.45339 2.45201C2.78616 2.11304 3.18885 1.85073 3.63339 1.68334C4.05872 1.51868 4.54205 1.40668 5.25205 1.37334C5.42939 1.36534 5.57739 1.35868 5.72672 1.35334L5.85605 1.34934C6.34218 1.3375 6.82845 1.33239 7.31472 1.33401L8.68539 1.33334ZM8.00005 4.66668C7.116 4.66668 6.26815 5.01787 5.64303 5.64299C5.01791 6.26811 4.66672 7.11596 4.66672 8.00001C4.66672 8.88407 5.01791 9.73191 5.64303 10.357C6.26815 10.9822 7.116 11.3333 8.00005 11.3333C8.88411 11.3333 9.73195 10.9822 10.3571 10.357C10.9822 9.73191 11.3334 8.88407 11.3334 8.00001C11.3334 7.11596 10.9822 6.26811 10.3571 5.64299C9.73195 5.01787 8.88411 4.66668 8.00005 4.66668ZM8.00005 6.00001C8.2627 5.99997 8.52278 6.05165 8.76545 6.15212C9.00811 6.25259 9.22862 6.39988 9.41436 6.58556C9.60011 6.77125 9.74747 6.9917 9.84802 7.23434C9.94857 7.47697 10.0003 7.73703 10.0004 7.99968C10.0004 8.26232 9.94874 8.5224 9.84827 8.76507C9.7478 9.00774 9.60052 9.22824 9.41484 9.41399C9.22915 9.59974 9.0087 9.74709 8.76606 9.84764C8.52343 9.94819 8.26336 9.99997 8.00072 10C7.47029 10 6.96158 9.7893 6.58651 9.41422C6.21143 9.03915 6.00072 8.53044 6.00072 8.00001C6.00072 7.46958 6.21143 6.96087 6.58651 6.5858C6.96158 6.21072 7.47029 6.00001 8.00072 6.00001M11.5007 3.66668C11.2797 3.66668 11.0677 3.75447 10.9115 3.91075C10.7552 4.06703 10.6674 4.279 10.6674 4.50001C10.6674 4.72102 10.7552 4.93299 10.9115 5.08927C11.0677 5.24555 11.2797 5.33334 11.5007 5.33334C11.7217 5.33334 11.9337 5.24555 12.09 5.08927C12.2463 4.93299 12.3341 4.72102 12.3341 4.50001C12.3341 4.279 12.2463 4.06703 12.09 3.91075C11.9337 3.75447 11.7217 3.66668 11.5007 3.66668Z" fill="currentColor"/>
</svg>
