<svg class="icon icon-cart" xmlns="http://www.w3.org/2000/svg" width="16" height="14" viewBox="0 0 16 14" fill="none">
<path d="M1.31264 11.6663C2.21264 12.75 3.88664 12.75 7.23614 12.75H7.77614C11.1256 12.75 12.8004 12.75 13.7004 11.6663M1.31264 11.6663C0.412644 10.5818 0.721644 8.93625 1.33889 5.64375C1.77764 3.30375 1.99664 2.133 2.82989 1.4415M13.7004 11.6663C14.6004 10.5818 14.2914 8.93625 13.6741 5.64375C13.2354 3.30375 13.0156 2.133 12.1824 1.4415M12.1824 1.4415C11.3499 0.75 10.1581 0.75 7.77689 0.75H7.23539C4.85414 0.75 3.66314 0.75 2.82989 1.4415" stroke="currentColor" stroke-width="1.5"/>
<path d="M5.38379 3.75C5.53874 4.18915 5.82609 4.56943 6.20624 4.83841C6.58638 5.10739 7.0406 5.25184 7.50629 5.25184C7.97197 5.25184 8.42619 5.10739 8.80634 4.83841C9.18648 4.56943 9.47384 4.18915 9.62879 3.75" stroke="currentColor" stroke-width="1.5" stroke-linecap="round"/>
</svg>
